<?xml version="1.0" standalone="no"?><!DOCTYPE svg PUBLIC "-//W3C//DTD SVG 1.1//EN" "http://www.w3.org/Graphics/SVG/1.1/DTD/svg11.dtd"><svg class="icon" height="512" viewBox="0 0 1024 1024" version="1.1" xmlns="http://www.w3.org/2000/svg"><path d="M477.7856 620.4032L317.3504 459.9808a25.5872 25.5872 0 0 0-36.1216 0.064 25.4848 25.4848 0 0 0-0.0768 36.1344l177.5488 177.5488a25.5872 25.5872 0 0 0 34.9824 0.9984c4.032-1.792 7.7824-4.4416 11.008-7.9488l236.3264-258.5088c12.6336-13.824 12.1088-35.6992-1.1136-48.9216l11.6864 11.6864a32.0256 32.0256 0 0 0-46.784 1.0368l-227.0208 248.32zM0 512C0 229.2352 229.1712 0 512 0c282.7648 0 512 229.1712 512 512 0 282.7648-229.1712 512-512 512C229.2352 1024 0 794.8288 0 512z" fill="#FF6EA4" /></svg>